# xmcd
#
# Track frame offsets: 
#        150
#        80188
#        86356
#        202276
#
# Disc length: 3328 seconds
#
# Revision: 1
# Processed by: cddbd v1.5.2PL0 Copyright (c) Steve Scherf et al.
# Submitted via: ExactAudioCopy v0.99pb5
#
DISCID=320cfe04
DTITLE=Henry Grimes,  Rashied Ali - Going To The Ritual
DYEAR=2007
DGENRE=Jazz
TTITLE0=Hidden Forces Aggregate
TTITLE1=Easternal Mysticism, Virtue And Calm
TTITLE2=Gone Beyond The Gate
TTITLE3=This Must Have Always Happened
EXTD=YEAR: 2007
EXTT0=
EXTT1=
EXTT2=
EXTT3=
PLAYORDER=
